<svg width="144" height="31" viewBox="0 0 144 31" fill="none" xmlns="http://www.w3.org/2000/svg">
<path d="M32 11.0806C32 11.4071 31.8703 11.7202 31.6394 11.9511C31.4085 12.182 31.0954 12.3117 30.7688 12.3117H28.3065V14.7741C28.3065 15.1006 28.1768 15.4138 27.9459 15.6446C27.715 15.8755 27.4018 16.0053 27.0753 16.0053C26.7488 16.0053 26.4356 15.8755 26.2047 15.6446C25.9738 15.4138 25.8441 15.1006 25.8441 14.7741V12.3117H23.3818C23.0553 12.3117 22.7421 12.182 22.5112 11.9511C22.2803 11.7202 22.1506 11.4071 22.1506 11.0806C22.1506 10.754 22.2803 10.4409 22.5112 10.21C22.7421 9.9791 23.0553 9.84939 23.3818 9.84939H25.8441V7.38704C25.8441 7.06051 25.9738 6.74736 26.2047 6.51647C26.4356 6.28558 26.7488 6.15587 27.0753 6.15587C27.4018 6.15587 27.715 6.28558 27.9459 6.51647C28.1768 6.74736 28.3065 7.06051 28.3065 7.38704V9.84939H30.7688C31.0954 9.84939 31.4085 9.9791 31.6394 10.21C31.8703 10.4409 32 10.754 32 11.0806ZM17.2259 4.92469H18.4571V6.15587C18.4571 6.48239 18.5868 6.79555 18.8177 7.02644C19.0486 7.25733 19.3617 7.38704 19.6883 7.38704C20.0148 7.38704 20.328 7.25733 20.5588 7.02644C20.7897 6.79555 20.9194 6.48239 20.9194 6.15587V4.92469H22.1506C22.4771 4.92469 22.7903 4.79498 23.0212 4.56409C23.2521 4.3332 23.3818 4.02005 23.3818 3.69352C23.3818 3.36699 23.2521 3.05384 23.0212 2.82295C22.7903 2.59206 22.4771 2.46235 22.1506 2.46235H20.9194V1.23117C20.9194 0.904646 20.7897 0.591492 20.5588 0.360602C20.328 0.129712 20.0148 0 19.6883 0C19.3617 0 19.0486 0.129712 18.8177 0.360602C18.5868 0.591492 18.4571 0.904646 18.4571 1.23117V2.46235H17.2259C16.8994 2.46235 16.5862 2.59206 16.3554 2.82295C16.1245 3.05384 15.9947 3.36699 15.9947 3.69352C15.9947 4.02005 16.1245 4.3332 16.3554 4.56409C16.5862 4.79498 16.8994 4.92469 17.2259 4.92469ZM28.425 19.8527C28.5683 20.0195 28.6643 20.2217 28.703 20.4382C28.7417 20.6547 28.7217 20.8777 28.6451 21.0838C27.7907 23.4137 26.3633 25.4908 24.4946 27.1235C22.6258 28.7562 20.3759 29.8919 17.9525 30.4258C15.5291 30.9596 13.0102 30.8745 10.6284 30.1781C8.24653 29.4818 6.07847 28.1967 4.32426 26.4415C2.57005 24.6863 1.28621 22.5175 0.59123 20.1353C-0.103753 17.7531 -0.187488 15.2342 0.34775 12.811C0.882989 10.3879 2.01996 8.13864 3.65373 6.27081C5.2875 4.40297 7.36543 2.97676 9.69576 2.12377C9.90087 2.04866 10.1223 2.02946 10.3372 2.06815C10.5522 2.10684 10.753 2.20204 10.9191 2.34396C11.0851 2.48588 11.2104 2.66942 11.2821 2.87575C11.3538 3.08208 11.3693 3.30377 11.3271 3.51808C10.8956 5.70182 11.0087 7.95822 11.6562 10.0879C12.3037 12.2176 13.4658 14.155 15.0398 15.729C16.6138 17.303 18.5512 18.4651 20.6809 19.1126C22.8106 19.7602 25.067 19.8732 27.2507 19.4418C27.4653 19.3998 27.6872 19.4158 27.8936 19.488C28.1 19.5602 28.2834 19.6861 28.425 19.8527ZM25.4409 22.1427C25.1655 22.1565 24.8884 22.1642 24.613 22.1642C20.3689 22.1597 16.3001 20.4716 13.2994 17.4703C10.2987 14.4691 8.61138 10.3999 8.60771 6.15587C8.60771 5.88039 8.60771 5.60338 8.62925 5.3279C6.99115 6.27054 5.59206 7.57764 4.54037 9.14796C3.48868 10.7183 2.81263 12.5096 2.5646 14.3832C2.31657 16.2568 2.50322 18.1624 3.11008 19.9523C3.71695 21.7422 4.72774 23.3683 6.06414 24.7047C7.40054 26.0411 9.02667 27.0519 10.8165 27.6587C12.6064 28.2656 14.512 28.4523 16.3856 28.2042C18.2592 27.9562 20.0506 27.2801 21.6209 26.2285C23.1912 25.1768 24.4983 23.7777 25.4409 22.1396V22.1427Z" fill="#1C74BC"/>
<path d="M41.8155 19.52H36.9515L36.0555 22H34.5195L38.5515 10.912H40.2315L44.2475 22H42.7115L41.8155 19.52ZM41.3995 18.336L39.3835 12.704L37.3675 18.336H41.3995ZM50.2767 13.072C51.3434 13.072 52.2074 13.3973 52.8687 14.048C53.53 14.688 53.8607 15.616 53.8607 16.832V22H52.4207V17.04C52.4207 16.1653 52.202 15.4987 51.7647 15.04C51.3274 14.5707 50.73 14.336 49.9727 14.336C49.2047 14.336 48.5914 14.576 48.1327 15.056C47.6847 15.536 47.4607 16.2347 47.4607 17.152V22H46.0047V13.232H47.4607V14.48C47.7487 14.032 48.138 13.6853 48.6287 13.44C49.13 13.1947 49.6794 13.072 50.2767 13.072ZM56.9911 11.808C56.7137 11.808 56.4791 11.712 56.2871 11.52C56.0951 11.328 55.9991 11.0933 55.9991 10.816C55.9991 10.5387 56.0951 10.304 56.2871 10.112C56.4791 9.92 56.7137 9.824 56.9911 9.824C57.2577 9.824 57.4817 9.92 57.6631 10.112C57.8551 10.304 57.9511 10.5387 57.9511 10.816C57.9511 11.0933 57.8551 11.328 57.6631 11.52C57.4817 11.712 57.2577 11.808 56.9911 11.808ZM57.6951 13.232V22H56.2391V13.232H57.6951ZM63.4406 20.656L66.1606 13.232H67.7126L64.2726 22H62.5766L59.1366 13.232H60.7046L63.4406 20.656ZM77.1453 17.28C77.1453 17.5573 77.1293 17.8507 77.0973 18.16H70.0893C70.1427 19.024 70.436 19.7013 70.9693 20.192C71.5133 20.672 72.1693 20.912 72.9373 20.912C73.5667 20.912 74.0893 20.768 74.5053 20.48C74.932 20.1813 75.2307 19.7867 75.4013 19.296H76.9693C76.7347 20.1387 76.2653 20.8267 75.5613 21.36C74.8573 21.8827 73.9827 22.144 72.9373 22.144C72.1053 22.144 71.3587 21.9573 70.6973 21.584C70.0467 21.2107 69.5347 20.6827 69.1613 20C68.788 19.3067 68.6013 18.5067 68.6013 17.6C68.6013 16.6933 68.7827 15.8987 69.1453 15.216C69.508 14.5333 70.0147 14.0107 70.6653 13.648C71.3267 13.2747 72.084 13.088 72.9373 13.088C73.7693 13.088 74.5053 13.2693 75.1453 13.632C75.7853 13.9947 76.276 14.496 76.6173 15.136C76.9693 15.7653 77.1453 16.48 77.1453 17.28ZM75.6413 16.976C75.6413 16.4213 75.5187 15.9467 75.2733 15.552C75.028 15.1467 74.692 14.8427 74.2653 14.64C73.8493 14.4267 73.3853 14.32 72.8733 14.32C72.1373 14.32 71.508 14.5547 70.9853 15.024C70.4733 15.4933 70.18 16.144 70.1053 16.976H75.6413ZM80.5232 14.656C80.7792 14.1547 81.1419 13.7653 81.6112 13.488C82.0912 13.2107 82.6725 13.072 83.3552 13.072V14.576H82.9712C81.3392 14.576 80.5232 15.4613 80.5232 17.232V22H79.0672V13.232H80.5232V14.656Z" fill="#26ABE2"/>
<path d="M86.492 20.816H90.396V22H85.036V10.848H86.492V20.816ZM99.9422 17.28C99.9422 17.5573 99.9262 17.8507 99.8942 18.16H92.8862C92.9395 19.024 93.2329 19.7013 93.7662 20.192C94.3102 20.672 94.9662 20.912 95.7342 20.912C96.3635 20.912 96.8862 20.768 97.3022 20.48C97.7289 20.1813 98.0275 19.7867 98.1982 19.296H99.7662C99.5315 20.1387 99.0622 20.8267 98.3582 21.36C97.6542 21.8827 96.7795 22.144 95.7342 22.144C94.9022 22.144 94.1555 21.9573 93.4942 21.584C92.8435 21.2107 92.3315 20.6827 91.9582 20C91.5849 19.3067 91.3982 18.5067 91.3982 17.6C91.3982 16.6933 91.5795 15.8987 91.9422 15.216C92.3049 14.5333 92.8115 14.0107 93.4622 13.648C94.1235 13.2747 94.8809 13.088 95.7342 13.088C96.5662 13.088 97.3022 13.2693 97.9422 13.632C98.5822 13.9947 99.0729 14.496 99.4142 15.136C99.7662 15.7653 99.9422 16.48 99.9422 17.28ZM98.4382 16.976C98.4382 16.4213 98.3155 15.9467 98.0702 15.552C97.8249 15.1467 97.4889 14.8427 97.0622 14.64C96.6462 14.4267 96.1822 14.32 95.6702 14.32C94.9342 14.32 94.3049 14.5547 93.7822 15.024C93.2702 15.4933 92.9769 16.144 92.9022 16.976H98.4382ZM112.408 13.072C113.091 13.072 113.699 13.216 114.232 13.504C114.765 13.7813 115.187 14.2027 115.496 14.768C115.805 15.3333 115.96 16.0213 115.96 16.832V22H114.52V17.04C114.52 16.1653 114.301 15.4987 113.864 15.04C113.437 14.5707 112.856 14.336 112.12 14.336C111.363 14.336 110.76 14.5813 110.312 15.072C109.864 15.552 109.64 16.2507 109.64 17.168V22H108.2V17.04C108.2 16.1653 107.981 15.4987 107.544 15.04C107.117 14.5707 106.536 14.336 105.8 14.336C105.043 14.336 104.44 14.5813 103.992 15.072C103.544 15.552 103.32 16.2507 103.32 17.168V22H101.864V13.232H103.32V14.496C103.608 14.0373 103.992 13.6853 104.472 13.44C104.963 13.1947 105.501 13.072 106.088 13.072C106.824 13.072 107.475 13.2373 108.04 13.568C108.605 13.8987 109.027 14.384 109.304 15.024C109.549 14.4053 109.955 13.9253 110.52 13.584C111.085 13.2427 111.715 13.072 112.408 13.072ZM119.804 14.864C120.103 14.3413 120.54 13.9147 121.116 13.584C121.692 13.2533 122.348 13.088 123.084 13.088C123.874 13.088 124.583 13.2747 125.212 13.648C125.842 14.0213 126.338 14.5493 126.7 15.232C127.063 15.904 127.244 16.688 127.244 17.584C127.244 18.4693 127.063 19.2587 126.7 19.952C126.338 20.6453 125.836 21.184 125.196 21.568C124.567 21.952 123.863 22.144 123.084 22.144C122.327 22.144 121.66 21.9787 121.084 21.648C120.519 21.3173 120.092 20.896 119.804 20.384V22H118.348V10.16H119.804V14.864ZM125.756 17.584C125.756 16.9227 125.623 16.3467 125.356 15.856C125.09 15.3653 124.727 14.992 124.268 14.736C123.82 14.48 123.324 14.352 122.78 14.352C122.247 14.352 121.751 14.4853 121.292 14.752C120.844 15.008 120.482 15.3867 120.204 15.888C119.938 16.3787 119.804 16.9493 119.804 17.6C119.804 18.2613 119.938 18.8427 120.204 19.344C120.482 19.8347 120.844 20.2133 121.292 20.48C121.751 20.736 122.247 20.864 122.78 20.864C123.324 20.864 123.82 20.736 124.268 20.48C124.727 20.2133 125.09 19.8347 125.356 19.344C125.623 18.8427 125.756 18.256 125.756 17.584ZM130.617 14.656C130.873 14.1547 131.236 13.7653 131.705 13.488C132.185 13.2107 132.766 13.072 133.449 13.072V14.576H133.065C131.433 14.576 130.617 15.4613 130.617 17.232V22H129.161V13.232H130.617V14.656ZM143.13 17.28C143.13 17.5573 143.114 17.8507 143.082 18.16H136.074C136.127 19.024 136.42 19.7013 136.954 20.192C137.498 20.672 138.154 20.912 138.922 20.912C139.551 20.912 140.074 20.768 140.49 20.48C140.916 20.1813 141.215 19.7867 141.386 19.296H142.954C142.719 20.1387 142.25 20.8267 141.546 21.36C140.842 21.8827 139.967 22.144 138.922 22.144C138.09 22.144 137.343 21.9573 136.682 21.584C136.031 21.2107 135.519 20.6827 135.146 20C134.772 19.3067 134.586 18.5067 134.586 17.6C134.586 16.6933 134.767 15.8987 135.13 15.216C135.492 14.5333 135.999 14.0107 136.65 13.648C137.311 13.2747 138.068 13.088 138.922 13.088C139.754 13.088 140.49 13.2693 141.13 13.632C141.77 13.9947 142.26 14.496 142.602 15.136C142.954 15.7653 143.13 16.48 143.13 17.28ZM141.626 16.976C141.626 16.4213 141.503 15.9467 141.258 15.552C141.012 15.1467 140.676 14.8427 140.25 14.64C139.834 14.4267 139.37 14.32 138.858 14.32C138.122 14.32 137.492 14.5547 136.97 15.024C136.458 15.4933 136.164 16.144 136.09 16.976H141.626Z" fill="#F2FAFF"/>
</svg>
